<svg id="Layer_1" data-name="Layer 1" xmlns="http://www.w3.org/2000/svg" xmlns:xlink="http://www.w3.org/1999/xlink" width="478.77" height="57.78" viewBox="0 0 478.77 57.78"><defs><style>.cls-1{fill:none;}.cls-2{fill:#e24402;}.cls-3{clip-path:url(#clip-path);}</style><clipPath id="clip-path" transform="translate(-10.61 -221.11)"><rect id="SVGID" class="cls-1" x="10.62" y="221.11" width="478.76" height="57.78"/></clipPath></defs><title>aviatrix-logo-freelogovectors.net</title><path id="Fill_1" data-name="Fill 1" class="cls-2" d="M133.33,278.89a38.37,38.37,0,0,1-8.68-.9,19.68,19.68,0,0,1-6.52-2.68,12,12,0,0,1-5.55-10.52,11.13,11.13,0,0,1,1.67-6.08,15.14,15.14,0,0,1,4.79-4.6,31.6,31.6,0,0,1,7.49-3.33,80,80,0,0,1,9.79-2.32c3.61-.63,7.55-1.16,11.72-1.57s8.77-.76,13.26-1v-3.93a9.41,9.41,0,0,0-3.29-7.42,14.2,14.2,0,0,0-3.64-2.28,25.8,25.8,0,0,0-4.53-1.48,37,37,0,0,0-5.12-.79c-1.8-.17-3.62-.25-5.4-.25a52.69,52.69,0,0,0-6.64.38,48.17,48.17,0,0,0-5.59,1c-1.7.43-3.38.94-5,1.52s-3.17,1.17-4.8,1.83V229c3.34-.92,6.94-1.73,10.7-2.41a68.7,68.7,0,0,1,12.07-1,51.22,51.22,0,0,1,10.11.95,25.83,25.83,0,0,1,8.15,3.05,15.77,15.77,0,0,1,5.45,5.41,15.46,15.46,0,0,1,2,8.06v34.86H161.3v-5.69a41.78,41.78,0,0,1-5.9,2.69,60.87,60.87,0,0,1-7,2.13,64.13,64.13,0,0,1-7.52,1.38A60.18,60.18,0,0,1,133.33,278.89Zm28-28.89c-7.83.45-14.62,1.1-20.18,1.9a82,82,0,0,0-13.67,3,20.94,20.94,0,0,0-7.78,4.19,7.41,7.41,0,0,0-2.48,5.42,8.13,8.13,0,0,0,1.21,4.38,9.66,9.66,0,0,0,3.5,3.22,18.62,18.62,0,0,0,5.52,1.94,37.17,37.17,0,0,0,7.29.66,48,48,0,0,0,4.94-.28c1.71-.19,3.42-.45,5.07-.79s3.37-.74,5-1.19,3.15-1,4.62-1.51a38.8,38.8,0,0,0,4-1.76,19,19,0,0,0,3-1.91Z" transform="translate(-10.61 -221.11)"/><path id="Fill_3" data-name="Fill 3" class="cls-2" d="M204.31,274.44H198l-23.32-48.89h4.76l21.86,45.83,21.85-45.83h4.73Z" transform="translate(-10.61 -221.11)"/><path id="Clip_6-2" data-name="Clip 6-2" class="cls-1" d="M10.62,278.89H489.38V221.11H10.62Z" transform="translate(-10.61 -221.11)"/><g class="cls-3"><g id="Aviatrix_Logo" data-name="Aviatrix Logo"><path id="Fill_5" data-name="Fill 5" class="cls-2" d="M241.13,274.44h4.44V225.55h-4.44Z" transform="translate(-10.61 -221.11)"/><path id="Fill_7" data-name="Fill 7" class="cls-2" d="M275.18,278.89a38.37,38.37,0,0,1-8.68-.9,19.54,19.54,0,0,1-6.51-2.68,12.39,12.39,0,0,1-4.11-4.4,12.53,12.53,0,0,1-1.45-6.12,11.14,11.14,0,0,1,1.68-6.08,15.11,15.11,0,0,1,4.78-4.6,31.6,31.6,0,0,1,7.49-3.33,80.19,80.19,0,0,1,9.8-2.32c3.6-.63,7.55-1.16,11.71-1.57,4.32-.42,8.78-.76,13.26-1v-3.93a9.81,9.81,0,0,0-.86-4.23,10.07,10.07,0,0,0-2.42-3.19,14.08,14.08,0,0,0-3.65-2.28,25.53,25.53,0,0,0-4.53-1.48,36.82,36.82,0,0,0-5.12-.79c-1.8-.17-3.62-.25-5.39-.25a52.58,52.58,0,0,0-6.64.38,48,48,0,0,0-5.6,1c-1.7.43-3.37.94-5,1.52s-3.09,1.14-4.8,1.83V229c3.34-.92,6.94-1.73,10.7-2.41a68.7,68.7,0,0,1,12.07-1,51.22,51.22,0,0,1,10.11.95,25.83,25.83,0,0,1,8.15,3.05,15.77,15.77,0,0,1,5.45,5.41,15.46,15.46,0,0,1,2,8.06v34.86h-4.48v-5.69a41.27,41.27,0,0,1-5.9,2.69,60.26,60.26,0,0,1-7,2.13,64.13,64.13,0,0,1-7.52,1.38A60.18,60.18,0,0,1,275.18,278.89Zm28-28.89c-7.83.45-14.62,1.1-20.17,1.9a82.12,82.12,0,0,0-13.68,3,20.94,20.94,0,0,0-7.78,4.19,7.36,7.36,0,0,0-2.47,5.42,8,8,0,0,0,1.2,4.38,9.8,9.8,0,0,0,3.49,3.22,18.78,18.78,0,0,0,5.53,1.94,37.27,37.27,0,0,0,7.3.66,47.76,47.76,0,0,0,4.93-.28c1.71-.19,3.42-.45,5.07-.79s3.37-.73,5-1.19,3.15-1,4.63-1.51a37.69,37.69,0,0,0,3.95-1.76,19.07,19.07,0,0,0,3-1.91Z" transform="translate(-10.61 -221.11)"/><path id="Fill_8" data-name="Fill 8" class="cls-2" d="M343.08,229.61v44.83h-4.4V229.61H316.5v-4.06h48.76v4.06Z" transform="translate(-10.61 -221.11)"/><path id="Fill_9" data-name="Fill 9" class="cls-2" d="M411.21,229.77a23.7,23.7,0,0,0-4.61-.36,27.14,27.14,0,0,0-7.34,1,28.65,28.65,0,0,0-6.37,2.58,31.73,31.73,0,0,0-5.46,3.8,40.07,40.07,0,0,0-4.52,4.6v33.1h-4.35V226.77h4.35v9.71a40.8,40.8,0,0,1,5.07-4.4,35.46,35.46,0,0,1,5.76-3.46,33.36,33.36,0,0,1,6.36-2.24,29,29,0,0,1,6.88-.83c.81,0,1.54,0,2.2.06s1.25.08,1.79.14,1.06.12,1.55.19,1,.15,1.5.24v4.27c-.67-.21-1.61-.44-2.8-.68" transform="translate(-10.61 -221.11)"/><path id="Fill_10" data-name="Fill 10" class="cls-2" d="M418.45,274.44h4.44V225.55h-4.44Z" transform="translate(-10.61 -221.11)"/><path id="Fill_11" data-name="Fill 11" class="cls-2" d="M462.77,252.35l-21,22.09h-5.6L460,249.36l-22.64-23.81H443l19.82,20.91,19.88-20.91h5.59L465.6,249.36l23.78,25.08h-5.56Z" transform="translate(-10.61 -221.11)"/><path id="Fill_12" data-name="Fill 12" class="cls-2" d="M83.56,260.11,75.83,250,61.52,231.24l-4.37-5.71a11.08,11.08,0,0,0-15.49-2.21,11.29,11.29,0,0,0-2.21,2.21l-4.36,5.71L20.76,250,13,260.11a11.83,11.83,0,0,0,1.88,16.3,11,11,0,0,0,7,2.48,11.13,11.13,0,0,0,8.86-4.43l4.36-5.7,11.42-14.94L40.94,242l4.73,6.18,2.63,3.25,13.21,17.29,4.36,5.7a11.15,11.15,0,0,0,8.86,4.43,11,11,0,0,0,7-2.48,11.83,11.83,0,0,0,1.88-16.29" transform="translate(-10.61 -221.11)"/></g></g></svg>